<svg xmlns="http://www.w3.org/2000/svg" width="11.241" height="12.206" viewBox="0 0 11.241 12.206"><g transform="translate(-1254.443 -1455.297)"><g transform="translate(1233.654 1455.842)"><g transform="translate(21.336 0.003)"><path d="M213.751.2a.242.242,0,0,0-.342.342l5.144,5.145-5.145,5.144a.242.242,0,1,0,.336.348l.006-.006,5.315-5.315a.242.242,0,0,0,0-.342Z" transform="translate(-208.987 -0.134)" fill="#fff" stroke="#fff" stroke-width="1"/><path d="M27.067,5.517,21.752.2a.242.242,0,0,0-.342.342l5.144,5.145L21.41,10.832a.242.242,0,0,0,.336.348l.006-.006,5.315-5.315A.242.242,0,0,0,27.067,5.517Z" transform="translate(-21.336 -0.134)" fill="#fff" stroke="#fff" stroke-width="1"/></g><path d="M213.7,11.265a.242.242,0,0,1-.171-.413l5.145-5.144L213.529.564a.242.242,0,0,1,.342-.342l5.315,5.315a.242.242,0,0,1,0,.342l-5.315,5.315A.241.241,0,0,1,213.7,11.265Z" transform="translate(-187.771 -0.152)" fill="#fff" stroke="#fff" stroke-width="1"/><path d="M21.7,11.113a.242.242,0,0,1-.171-.413l5.145-5.144L21.529.413a.242.242,0,1,1,.342-.342l5.315,5.315a.242.242,0,0,1,0,.342l-5.315,5.315A.242.242,0,0,1,21.7,11.113Z" transform="translate(-0.119 0)" fill="#fff" stroke="#fff" stroke-width="1"/></g></g></svg>