<?xml version="1.0" encoding="UTF-8" standalone="no"?>
<svg
   xmlns:dc="http://purl.org/dc/elements/1.1/"
   xmlns:cc="http://creativecommons.org/ns#"
   xmlns:rdf="http://www.w3.org/1999/02/22-rdf-syntax-ns#"
   xmlns:svg="http://www.w3.org/2000/svg"
   xmlns="http://www.w3.org/2000/svg"
   xmlns:sodipodi="http://sodipodi.sourceforge.net/DTD/sodipodi-0.dtd"
   xmlns:inkscape="http://www.inkscape.org/namespaces/inkscape"
   id="Layer_1"
   data-name="Layer 1"
   viewBox="0 0 447.85 92.49"
   version="1.1"
   sodipodi:docname="footer-logo.svg"
   inkscape:version="1.0.1 (3bc2e813f5, 2020-09-07)">
  <metadata
     id="metadata41">
    <rdf:RDF>
      <cc:Work
         rdf:about="">
        <dc:format>image/svg+xml</dc:format>
        <dc:type
           rdf:resource="http://purl.org/dc/dcmitype/StillImage" />
        <dc:title>footer-logo</dc:title>
      </cc:Work>
    </rdf:RDF>
  </metadata>
  <sodipodi:namedview
     pagecolor="#ff1420"
     bordercolor="#666666"
     borderopacity="1"
     objecttolerance="10"
     gridtolerance="10"
     guidetolerance="10"
     inkscape:pageopacity="0"
     inkscape:pageshadow="2"
     inkscape:window-width="1368"
     inkscape:window-height="697"
     id="namedview39"
     showgrid="false"
     inkscape:pagecheckerboard="false"
     inkscape:zoom="1.3051245"
     inkscape:cx="236.75458"
     inkscape:cy="110.74625"
     inkscape:window-x="0"
     inkscape:window-y="34"
     inkscape:window-maximized="1"
     inkscape:current-layer="Layer_1" />
  <defs
     id="defs4">
    <style
       id="style2">.cls-1{fill:#fcfcfc;}.cls-2{fill:#fbc012;}.cls-3{fill:#fff;}</style>
  </defs>
  <title
     id="title6">footer-logo</title>
  <path
     class="cls-2"
     d="M521.17,102.06c-11,1.69-22.15.48-33.22.69-2.46,0-3.34-1.82-3.34-4.06,0-12.94,0-25.89,0-38.83,0-2.83,1.52-4,4.43-4,9.13.08,18.26.12,27.39,0,2.06,0,3.34.92,4.73,2v8.85a10.83,10.83,0,0,1-6.55,1.68c-3.8-.15-7.62,0-11.42-.06-1.92,0-2.61.73-2.59,2.62s.71,2.62,2.63,2.58c3.64-.09,7.29.06,10.93,0,4.12-.13,4.4,2.46,4.37,5.51s.16,6.16-4.27,6.19c-3.32,0-6.63,0-9.94,0-1.7,0-3.67-.6-3.75,2.41-.09,3.2,1.91,2.7,3.89,2.81,5.57.32,11.21-.89,16.7.86Z"
     transform="translate(-73.32 -21.37)"
     id="path10" />
  <path
     class="cls-2"
     d="M400.13,113.86c-19.47,0-35.12-15.6-35-34.76s16.2-34.64,35.46-34.48a34.89,34.89,0,0,1,34.88,34.94C435.4,98.72,419.75,113.9,400.13,113.86ZM381.35,78.74A18.83,18.83,0,0,0,400,98.22a18.85,18.85,0,1,0,1.21-37.68C390.3,60.17,381.63,68.11,381.35,78.74Z"
     transform="translate(-73.32 -21.37)"
     id="path12" />
  <path
     class="cls-2"
     d="M448.74,81.73c0,6-.1,11.18,0,16.33.1,3.58-1.45,5.12-5,4.89-2.15-.13-4.31,0-6.46,0-5.15,0-5.79-.9-3.46-5.27,6.54-12.2,6.57-24.35.13-36.58-2.41-4.56-1.88-4.79,3.26-5.39,6.77-.8,11.2,1.51,14.53,7.35,2.54,4.46,6,8.39,9.93,13.7,0-6.18.11-11,0-15.77-.11-3.78,1.48-5.23,5.34-5.15,11.49.24,10.84-1.39,10.82,10.45,0,10.31-.14,20.61.06,30.91.08,4.25-1.5,5.6-5.79,5.8-5.5.26-9.33-1.12-12.26-6C456.72,91.82,452.77,87.21,448.74,81.73Z"
     transform="translate(-73.32 -21.37)"
     id="path14" />
  <path
     class="cls-2"
     d="M327.39,79.36c0-6.21.09-12.43,0-18.64-.06-3.52,1.37-5,5-4.94,6.95.21,13.91.06,20.86.36a21.55,21.55,0,0,1,6.68,1.77c6,2.35,6.22,3.07,4.16,9.16a36.25,36.25,0,0,0,1,26.8c1.12,2.59.65,3.81-1.57,5.13a26.57,26.57,0,0,1-13.17,3.86c-6,.13-11.93-.07-17.89.09-3.64.1-5.11-1.44-5.05-5C327.46,91.79,327.39,85.57,327.39,79.36Zm16.06-.31a57.92,57.92,0,0,1-.05,6.85c-.39,3.16.92,3.88,3.89,3.77,4-.14,7.16-1.2,8.54-5.26,1.64-4.83.5-11.63-2.45-13.77a9.55,9.55,0,0,0-9-1.34c-2.18.84-.66,3.82-.91,5.83A32,32,0,0,0,343.45,79.05Z"
     transform="translate(-73.32 -21.37)"
     id="path16" />
  <path
     class="cls-3"
     d="M111.5,84.64c1.48-6.18,2.92-12.38,4.44-18.55.71-2.85,8.6-5.14,10.74-3.16.95.87.14,1.85-.11,2.66-2.93,9.7-6,19.34-8.9,29.05-1.3,4.41-4.79,2.34-7.42,2.74-2.42.37-4.53.09-5.28-2.95-1.32-5.38-2.89-10.71-4.76-17.52-1.8,6.39-3.38,11.48-4.63,16.65-.76,3.11-2.37,4.34-5.57,3.89-3-.42-6.48,1.27-7.78-3.66C79.75,84.33,76.7,75,73.67,65.69c-.84-2.57-.2-3,2.27-3.11,7.32-.33,7.31-.42,9.1,6.73,1.3,5.21,2.62,10.41,4.19,16.68,2.06-7.32,4.12-13.5,5.44-19.84.79-3.78,3.11-3.4,5.81-3.58,3-.19,4.5.76,5.22,3.72,1.48,6.16,3.27,12.25,4.94,18.36Z"
     transform="translate(-73.32 -21.37)"
     id="path18" />
  <path
     class="cls-3"
     d="M275,81.73c0-5.94.16-10.62-.05-15.28-.17-3.73,1.91-4.4,5-4.33s5.1.77,5,4.45c-.15,8.36,0,16.72-.07,25.08,0,2.33.88,5.44-2.53,6.1s-6.74,1-9.08-2.93c-3.1-5.16-6.8-10-11.15-16.24,0,5.93-.15,10.41.05,14.86.17,3.91-1.89,4.62-5.26,4.63s-4.77-1.14-4.7-4.61c.16-8.51,0-17,.09-25.56,0-2.08-1.11-5,2.39-5.53,3.06-.44,6.26-1,8.48,2.3C266.77,70.08,270.56,75.36,275,81.73Z"
     transform="translate(-73.32 -21.37)"
     id="path20" />
  <path
     class="cls-3"
     d="M196.82,79.94c0-4.58.11-9.17,0-13.75-.13-4.37,3-3.36,5.48-3.46s5.21-.29,4.86,3.56c-.09,1,0,2,0,2.95,0,6.35,0,6.38,6.39,6.33,7.25,0,6,.61,6-7.63,0-3.4.07-6.13,4.82-6.14,4.46,0,5.74,1.79,5.63,5.92-.22,8.51-.19,17,0,25.55.08,4-1.86,4.88-5.51,4.9s-5.28-1.23-4.91-4.86c.1-1-.13-2,0-2.94.95-5.17-1.43-6.13-6.3-6.22-5.17-.1-6.73,1.43-6.26,6.36.31,3.29,1.46,7.42-4.59,7.72-4.48.22-5.91-1.32-5.67-5.52S196.81,84.2,196.82,79.94Z"
     transform="translate(-73.32 -21.37)"
     id="path22" />
  <path
     class="cls-3"
     d="M321.71,87.69c0,9.52,0,9.52-9.58,11-8.8,1.32-17.86-3.17-21.15-10.5-3.59-8-1.84-17.33,4.65-22.33,6.87-5.29,14.76-5.26,22.67-2.9,4.1,1.21,2.76,5.06,2.24,7.57-.71,3.41-3.13.54-4.71.29a27.89,27.89,0,0,0-8.4-.29c-5.72.82-8.35,4.92-7.61,11.66a9.25,9.25,0,0,0,9.56,8.13c1.91,0,2.74-.69,2.64-2.58-.07-1.3.08-2.62,0-3.92-.26-3.45,0-6.06,4.76-6,4.54,0,5.24,2.42,5,6C321.63,85.07,321.71,86.38,321.71,87.69Z"
     transform="translate(-73.32 -21.37)"
     id="path24" />
  <path
     class="cls-3"
     d="M158.85,97.91c-3.92.69-6.35-.1-7.07-3.6-.39-1.92-1.78-2.08-3.38-2.06-3,0-6,0-9,0-1.37,0-2.85,0-3.27,1.55-1.47,5.6-6,3.16-9.43,3.55-1.57.18-1.91-.69-1.3-2.17,4-9.86,7.92-19.76,11.9-29.63,1.25-3.09,4-2.88,6.71-3,2.88-.08,5.31.42,6.5,3.35,3.91,9.72,7.95,19.4,11.65,29.2C163.94,99.73,159.61,97.26,158.85,97.91ZM143.58,73.58a60.19,60.19,0,0,1-2.51,6.53c-2,3.74-.67,4.6,3.15,4.34,2.63-.17,4.25-.32,2.71-3.5C145.89,78.8,145.64,76.3,143.58,73.58Z"
     transform="translate(-73.32 -21.37)"
     id="path26" />
  <path
     class="cls-3"
     d="M164.76,86.68c4.46,1.89,8.55,3.73,13.14,3.53,1.76-.07,4.07.18,4.43-2.1.31-2-1.81-2.43-3.3-3-3.05-1.26-6.23-2.26-9.12-3.78-4.71-2.48-6.69-6.87-5.56-11.4a10.4,10.4,0,0,1,10-8.08,48.3,48.3,0,0,1,8.92.13c2.58.33,5.34,1,6.45,3.84.78,2,1.24,4.51,0,6.13s-2.83-.73-4.37-.94A59.51,59.51,0,0,0,178,70c-1.26,0-3.34-.12-3.46,1.94-.1,1.58,1.5,2,2.69,2.5,3.05,1.25,6.25,2.19,9.18,3.65,5.36,2.69,7.31,7.08,6,12.6-1.1,4.63-5,7.33-10.83,7.5-2.48.07-5,.07-7.45,0C165.55,97.85,163.94,96,164.76,86.68Z"
     transform="translate(-73.32 -21.37)"
     id="path28" />
  <path
     class="cls-3"
     d="M246.06,79.75c0,4.42-.09,8.85,0,13.27.1,3.53-1.38,5-5,5.06S236,97,236,93.26c.16-8.84.18-17.7,0-26.54-.08-3.65,1.62-4.37,4.84-4.37s5.43.72,5.25,4.62C245.91,71.22,246.06,75.49,246.06,79.75Z"
     transform="translate(-73.32 -21.37)"
     id="path30" />
  <path
     class="cls-2"
     d="M439.34,40.87A9.67,9.67,0,0,1,420,40.68a9.71,9.71,0,0,1,10.06-9.33A9.5,9.5,0,0,1,439.34,40.87Zm-3-.31a6.7,6.7,0,0,0-6.91-6.29,6.32,6.32,0,0,0-6.1,6.94c.31,3.89,2.62,5.88,6.5,5.95A6.46,6.46,0,0,0,436.31,40.56Z"
     transform="translate(-73.32 -21.37)"
     id="path32" />
  <path
     class="cls-2"
     d="M447.52,26.75c-.4,3-1.66,5.6-5.19,5.71s-6.07-2-6.05-5.65c0-3.11,1.26-5.54,5.34-5.44C445.38,21.47,447.82,22.37,447.52,26.75Zm-2-.23c.4-3.09-1.68-3-4-3.22-2.86-.24-3.33,1.33-3.24,3.45.11,2.51,1.53,3.87,4.1,3.72C444.72,30.33,445.82,29,445.47,26.52Z"
     transform="translate(-73.32 -21.37)"
     id="path34" />
</svg>
