<svg xmlns="http://www.w3.org/2000/svg" viewBox="0 0 611.997 611.997" width="512" height="512"><path d="M554.068 57.971C516.679 20.588 466.974 0 414.108 0c-52.869 0-102.575 20.588-139.956 57.971-37.39 37.385-57.98 87.092-57.98 139.963 0 27.181 5.481 53.51 15.849 77.773L13.939 493.789a23.845 23.845 0 00-6.897 14.754l-6.903 77.47a23.86 23.86 0 0025.887 25.889l77.474-6.901a23.854 23.854 0 0014.754-6.901l23.491-23.493c-.16-.652-.275-1.32-.323-2.011l-3.851-56.142a11.541 11.541 0 013.353-8.949c2.357-2.357 5.598-3.561 8.946-3.353L206.017 508c.691.045 1.362.162 2.013.325l18.438-18.438a11.699 11.699 0 01-.325-2.015l-3.851-56.142a11.548 11.548 0 013.353-8.949 11.552 11.552 0 018.949-3.353l56.146 3.851c.688.045 1.362.162 2.013.325l43.594-43.596c24.263 10.369 50.594 15.847 77.771 15.847 52.871 0 102.575-20.588 139.961-57.969 77.167-77.163 77.167-202.735-.011-279.915zm-82.327 197.598c-15.393 15.391-35.859 23.867-57.631 23.867-21.77 0-42.236-8.477-57.629-23.872-15.395-15.393-23.874-35.861-23.874-57.631 0-21.772 8.479-42.238 23.874-57.631 15.388-15.393 35.857-23.869 57.627-23.869 21.772 0 42.238 8.477 57.631 23.869 31.779 31.78 31.779 83.491.002 115.267z" fill="#FFF"/></svg>
