<svg id="Layer_1" data-name="Layer 1" xmlns="http://www.w3.org/2000/svg" viewBox="0 0 291.33 172.05"><defs><style>.cls-1{fill:#fff;stroke:#fff;}</style></defs><title>star</title><polygon class="cls-1" points="186.81 64.55 156.44 63.19 138.09 87.44 130 58.13 101.27 48.18 126.64 31.43 127.23 1.02 151 19.98 180.1 11.14 169.42 39.61 186.81 64.55"/><polygon class="cls-1" points="53.54 153.04 35.35 154.73 26.89 170.91 19.14 153.85 1.06 150.21 14.46 137.98 11.74 119.54 27.78 129.04 44.17 121.29 40.69 139.39 53.54 153.04"/><polygon class="cls-1" points="290.26 153.04 272.08 154.73 263.62 170.91 255.86 153.85 237.79 150.21 251.18 137.98 248.47 119.54 264.5 129.04 280.9 121.29 277.42 139.39 290.26 153.04"/></svg>